<svg xmlns="http://www.w3.org/2000/svg" viewBox="0 0 60 34">
  <style>
    .monogram { fill:none; stroke:#5d7065; stroke-width:1.8; stroke-linecap:round; stroke-linejoin:round; }
    .connector { fill:none; stroke:#5d7065; stroke-width:.9; stroke-dasharray:1.3 2; opacity:.6; }
    .nodes { fill:#5d7065; }
    .nodes circle { r:1.95px; }
    @media (prefers-color-scheme: dark) {
      .monogram,.connector { stroke:#a4b2aa; }
      .nodes { fill:#a4b2aa; }
    }
  </style>
  <g class="monogram">
    <path d="M2 4.5 7.5 29 14 15l6.5 14L26 4.5M32 4.5v24.5M32 17h11M43 4.5V29M49 4.5V29h9"/>
  </g>
  <g class="connector">
    <path d="M2 4.5 32 4.5 58 29M7.5 29 32 17 49 4.5M20.5 29H43L58 29M14 15 43 17 49 29"/>
  </g>
  <g class="nodes">
    <circle cx="2" cy="4.5" r="1.55"/><circle cx="7.5" cy="29" r="1.55"/><circle cx="14" cy="15" r="1.8"/><circle cx="20.5" cy="29" r="1.55"/><circle cx="26" cy="4.5" r="1.55"/>
    <circle cx="32" cy="4.5" r="1.55"/><circle cx="32" cy="17" r="1.8"/><circle cx="32" cy="29" r="1.55"/><circle cx="43" cy="4.5" r="1.55"/><circle cx="43" cy="17" r="1.8"/><circle cx="43" cy="29" r="1.55"/>
    <circle cx="49" cy="4.5" r="1.55"/><circle cx="49" cy="29" r="1.8"/><circle cx="58" cy="29" r="1.55"/>
  </g>
</svg>
